<?xml version="1.0" encoding="UTF-8"?>
<svg id="Capa_1" data-name="Capa 1" xmlns="http://www.w3.org/2000/svg" viewBox="0 0 87.75 60">
  <defs>
    <style>
      .cls-1 {
        fill: #37b24b;
      }

      .cls-2 {
        fill: #028c45;
      }

      .cls-3 {
        fill: #8dc640;
      }
    </style>
  </defs>
  <path class="cls-1" d="M28.68,30.26c-.35-.21-.73-.32-1.13-.34v-.1c.37-.08,.69-.22,.98-.42s.51-.45,.68-.76c.16-.31,.25-.67,.25-1.08,0-.53-.13-.99-.39-1.4-.26-.41-.65-.73-1.17-.95-.52-.23-1.16-.34-1.93-.34h-4.21v10.52h4.49c.79,0,1.45-.13,1.99-.38,.54-.25,.94-.6,1.22-1.04,.28-.44,.41-.93,.41-1.49,0-.52-.11-.96-.33-1.34-.22-.38-.5-.67-.86-.88h0Zm-4.71-3.6h1.69c.49,0,.88,.12,1.14,.35,.27,.23,.4,.54,.4,.92,0,.28-.07,.52-.21,.72-.14,.2-.33,.35-.57,.46-.24,.11-.51,.16-.81,.16h-1.65v-2.6h0Zm3.17,6.55c-.29,.24-.74,.36-1.35,.36h-1.81v-2.8h1.87c.36,0,.66,.06,.92,.19s.46,.3,.6,.52c.14,.22,.21,.48,.21,.77,0,.4-.14,.72-.43,.95h0Z"/>
  <path class="cls-1" d="M33.45,27.49h-2.19v7.89h2.19v-7.89Z"/>
  <path class="cls-1" d="M40.83,27.9c-.58-.34-1.27-.51-2.07-.51s-1.49,.17-2.07,.51-1.03,.82-1.34,1.43c-.31,.61-.47,1.33-.47,2.14s.16,1.52,.47,2.13,.76,1.09,1.34,1.43c.58,.34,1.27,.51,2.07,.51s1.49-.17,2.07-.51c.58-.34,1.03-.82,1.34-1.43s.47-1.32,.47-2.13-.16-1.53-.47-2.14c-.31-.61-.76-1.09-1.34-1.43Zm-.59,4.78c-.13,.36-.31,.64-.55,.85s-.55,.31-.91,.31-.67-.1-.92-.31c-.25-.21-.44-.49-.56-.85-.13-.36-.19-.77-.19-1.23s.06-.87,.19-1.23c.13-.36,.31-.64,.56-.85,.25-.21,.56-.31,.92-.31s.67,.11,.91,.31c.24,.21,.43,.49,.55,.85,.13,.36,.19,.77,.19,1.23s-.06,.87-.19,1.23Z"/>
  <path class="cls-1" d="M46.69,24.86l-3.63,10.52h2.38l.78-2.4h3.8l.78,2.4h2.38l-3.63-10.52h-2.86Zm.1,6.39l1.3-3.98h.08l1.29,3.98h-2.67Z"/>
  <path class="cls-1" d="M56.74,29.37c.25-.18,.55-.28,.89-.28,.4,0,.73,.12,.97,.36,.25,.24,.4,.56,.46,.95h2.07c-.03-.61-.2-1.14-.5-1.59-.3-.45-.71-.8-1.23-1.05-.52-.25-1.12-.38-1.81-.38-.8,0-1.49,.17-2.07,.52-.58,.34-1.03,.82-1.34,1.43-.31,.61-.47,1.32-.47,2.13s.15,1.5,.46,2.12,.75,1.09,1.34,1.44c.58,.34,1.28,.52,2.08,.52,.7,0,1.31-.13,1.82-.39,.51-.26,.92-.61,1.21-1.07,.29-.45,.45-.99,.49-1.59h-2.07c-.04,.28-.13,.51-.26,.71-.14,.2-.3,.35-.5,.45-.2,.1-.43,.15-.68,.15-.34,0-.63-.09-.89-.28-.25-.18-.45-.45-.59-.81-.14-.35-.21-.78-.21-1.29s.07-.92,.21-1.27c.14-.35,.34-.61,.59-.8h0Z"/>
  <path class="cls-1" d="M66.29,33.7c-.1,.02-.2,.03-.31,.03-.15,0-.28-.02-.39-.07-.11-.04-.2-.12-.26-.23s-.09-.27-.09-.47v-3.82h1.49v-1.64h-1.49v-1.89h-2.19v1.89h-1.08v1.64h1.08v4.11c0,.52,.11,.95,.32,1.29,.22,.34,.53,.59,.92,.75,.4,.16,.86,.23,1.38,.21,.29,0,.53-.04,.73-.08,.2-.05,.35-.09,.46-.12l-.34-1.63c-.05,0-.14,.02-.24,.04h0Z"/>
  <path class="cls-1" d="M70.34,27.49h-2.19v7.89h2.19v-7.89Z"/>
  <path class="cls-1" d="M75.49,33.14h-.08l-1.64-5.65h-2.31l2.76,7.89h2.47l2.76-7.89h-2.32l-1.64,5.65Z"/>
  <path class="cls-1" d="M86.76,28.84c-.18-.34-.43-.61-.74-.83-.31-.22-.67-.38-1.07-.48s-.82-.15-1.26-.15c-.63,0-1.19,.1-1.66,.29-.48,.19-.87,.46-1.17,.81-.3,.35-.5,.76-.6,1.25l2.02,.16c.08-.26,.23-.48,.46-.65,.24-.17,.55-.26,.94-.26s.66,.09,.87,.27,.3,.43,.3,.75v.03c0,.17-.06,.3-.19,.38-.13,.09-.33,.15-.61,.19s-.65,.09-1.11,.14c-.39,.04-.76,.1-1.12,.19-.35,.09-.67,.23-.95,.41-.28,.18-.5,.42-.66,.72-.16,.3-.24,.67-.24,1.1,0,.52,.12,.95,.34,1.3,.23,.35,.54,.61,.93,.78,.4,.17,.84,.27,1.34,.27,.39,0,.74-.05,1.03-.15,.3-.11,.55-.25,.76-.44,.21-.19,.38-.4,.51-.65h.06v1.09h2.08v-5.32c0-.47-.09-.87-.27-1.21h0Zm-1.9,3.71c0,.28-.07,.53-.21,.74-.14,.22-.33,.39-.58,.52-.25,.13-.53,.19-.85,.19s-.61-.08-.83-.23c-.22-.15-.32-.38-.32-.68,0-.2,.05-.38,.16-.52,.11-.14,.26-.25,.45-.33,.19-.08,.42-.14,.67-.18,.12-.02,.25-.04,.4-.06,.15-.02,.3-.05,.44-.08s.28-.06,.4-.1c.12-.03,.21-.08,.28-.12v.84h0Z"/>
  <path class="cls-1" d="M33.42,24.47h-2.13v1.88h2.13v-1.88Z"/>
  <path class="cls-1" d="M70.31,24.47h-2.13v1.88h2.13v-1.88Z"/>
  <path class="cls-2" d="M5.59,30c0,4.58-2.44,8.3-2.44,8.3,0,0-2.44-3.72-2.44-8.3s2.44-8.3,2.44-8.3c0,0,2.44,3.72,2.44,8.3Z"/>
  <path class="cls-3" d="M11.11,23.85c3.77,2.29,5.61,6.15,5.61,6.15,0,0-4.27,.15-8.04-2.14-3.77-2.29-5.61-6.16-5.61-6.16,0,0,4.28-.15,8.04,2.14Z"/>
  <path class="cls-1" d="M11.11,36.15c3.77-2.29,5.61-6.15,5.61-6.15,0,0-4.27-.15-8.04,2.14-3.77,2.29-5.61,6.15-5.61,6.15,0,0,4.27,.15,8.04-2.14Z"/>
</svg>