<?xml version="1.0" encoding="UTF-8"?>
<svg id="Capa_1" data-name="Capa 1" xmlns="http://www.w3.org/2000/svg" viewBox="0 0 87.75 60">
  <defs>
    <style>
      .cls-1 {
        fill: #37b24b;
      }

      .cls-2 {
        fill: #028c45;
      }

      .cls-3 {
        fill: #8dc640;
      }
    </style>
  </defs>
  <path class="cls-2" d="M32.68,30c0,16.19-8.62,29.33-8.62,29.33,0,0-8.62-13.13-8.62-29.33S24.06,.67,24.06,.67c0,0,8.62,13.13,8.62,29.33Z"/>
  <path class="cls-3" d="M52.49,8.25c13.32,8.09,19.82,21.75,19.82,21.75,0,0-15.1,.53-28.42-7.56C30.54,14.34,24.05,.67,24.05,.67c0,0,15.12-.51,28.44,7.58Z"/>
  <path class="cls-1" d="M52.49,51.76c13.32-8.09,19.82-21.75,19.82-21.75,0,0-15.1-.53-28.42,7.56-13.32,8.09-19.82,21.75-19.82,21.75,0,0,15.1,.53,28.42-7.56Z"/>
</svg>