<svg width="105" height="19" viewBox="0 0 105 19" fill="none" xmlns="http://www.w3.org/2000/svg">
<g clip-path="url(#clip0_25_28)">
<path d="M2.58977 18.9693C4.23442 16.19 5.17953 12.952 5.17953 9.49488C5.17953 6.03773 4.23442 2.79972 2.58977 0.0184326C0.94511 2.79972 0 6.03773 0 9.49488C0 12.952 0.94511 16.19 2.58977 18.9693Z" fill="#1C7E3C"/>
<path d="M2.625 -2.95912e-05C4.22838 2.80379 6.58084 5.23485 9.59776 6.96343C12.6147 8.69201 15.9122 9.49895 19.1603 9.47642C17.5569 6.6726 15.2044 4.24154 12.1875 2.51296C9.17061 0.784384 5.87304 -0.0225584 2.625 -2.95912e-05Z" fill="#65CF6A"/>
<path d="M2.625 19C4.22838 16.1962 6.58084 13.7651 9.59776 12.0365C12.6147 10.3079 15.9122 9.501 19.1603 9.52353C17.5569 12.3273 15.2044 14.7584 12.1875 16.487C9.17061 18.2156 5.87304 19.0225 2.625 19Z" fill="#38B049"/>
<path d="M27.3835 10.5906H30.7801C31.1268 10.5906 31.4157 10.7278 31.6427 11.0002C31.8697 11.2746 31.9852 11.6064 31.9852 11.9996C31.9852 12.3929 31.8594 12.7308 31.6076 12.9807C31.3559 13.2305 31.0381 13.3555 30.6542 13.3555H27.3835V10.5906ZM27.3835 5.66699H30.386C30.6976 5.66699 30.9638 5.77963 31.1866 6.00697C31.4074 6.23226 31.5189 6.5538 31.5189 6.96956C31.5189 7.42219 31.393 7.75398 31.1412 7.96902C30.8895 8.18407 30.6027 8.29057 30.2787 8.29057H27.3856V5.66699H27.3835ZM24.4347 3.16833V15.8357H30.6542C31.2403 15.8357 31.7975 15.7681 32.3257 15.6309C32.8519 15.4937 33.3142 15.2909 33.7104 15.0246C34.1066 14.7563 34.4182 14.4205 34.6452 14.017C34.8722 13.6135 34.9856 13.1363 34.9856 12.5895C34.9856 11.7334 34.7731 11.0309 34.348 10.4841C33.9229 9.93723 33.3431 9.55628 32.6126 9.34124C33.2234 9.06884 33.6815 8.66332 33.9869 8.12877C34.2923 7.59423 34.445 7.02281 34.445 6.41658C34.445 6.01311 34.3769 5.61579 34.2386 5.23075C34.1004 4.84366 33.9064 4.49958 33.6547 4.19647C33.4029 3.89335 33.0975 3.64758 32.7384 3.45711C32.3794 3.26664 31.977 3.17243 31.5333 3.17243H24.4326L24.4347 3.16833Z" fill="#1C7E3C"/>
<mask id="mask0_25_28" style="mask-type:luminance" maskUnits="userSpaceOnUse" x="24" y="3" width="11" height="13">
<path d="M27.3835 10.5906H30.7801C31.1268 10.5906 31.4157 10.7278 31.6427 11.0002C31.8697 11.2746 31.9852 11.6064 31.9852 11.9996C31.9852 12.3929 31.8594 12.7308 31.6076 12.9807C31.3559 13.2305 31.0381 13.3555 30.6542 13.3555H27.3835V10.5906ZM27.3835 5.66699H30.386C30.6976 5.66699 30.9638 5.77963 31.1866 6.00697C31.4074 6.23226 31.5189 6.5538 31.5189 6.96956C31.5189 7.42219 31.393 7.75398 31.1412 7.96902C30.8895 8.18407 30.6027 8.29057 30.2787 8.29057H27.3856V5.66699H27.3835ZM24.4347 3.16833V15.8357H30.6542C31.2403 15.8357 31.7975 15.7681 32.3257 15.6309C32.8519 15.4937 33.3142 15.2909 33.7104 15.0246C34.1066 14.7563 34.4182 14.4205 34.6452 14.017C34.8722 13.6135 34.9856 13.1363 34.9856 12.5895C34.9856 11.7334 34.7731 11.0309 34.348 10.4841C33.9229 9.93723 33.3431 9.55628 32.6126 9.34124C33.2234 9.06884 33.6815 8.66332 33.9869 8.12877C34.2923 7.59423 34.445 7.02281 34.445 6.41658C34.445 6.01311 34.3769 5.61579 34.2386 5.23075C34.1004 4.84366 33.9064 4.49958 33.6547 4.19647C33.4029 3.89335 33.0975 3.64758 32.7384 3.45711C32.3794 3.26664 31.977 3.17243 31.5333 3.17243H24.4326L24.4347 3.16833Z" fill="white"/>
</mask>
<g mask="url(#mask0_25_28)">
<path d="M34.9855 3.16833H24.4346V15.8357H34.9855V3.16833Z" fill="#1C7E3C"/>
</g>
<path d="M36.4961 15.8357H39.3727V6.46783H36.4961V15.8337V15.8357ZM36.4961 5.39873H39.3727V2.81201H36.4961V5.39873Z" fill="#1C7E3C"/>
<mask id="mask1_25_28" style="mask-type:luminance" maskUnits="userSpaceOnUse" x="36" y="2" width="4" height="14">
<path d="M36.4961 15.8357H39.3727V6.46783H36.4961V15.8337V15.8357ZM36.4961 5.39873H39.3727V2.81201H36.4961V5.39873Z" fill="white"/>
</mask>
<g mask="url(#mask1_25_28)">
<path d="M39.3727 2.81201H36.4961V15.8357H39.3727V2.81201Z" fill="#1C7E3C"/>
</g>
<path d="M44.3337 12.9357C43.9375 12.4892 43.7414 11.8973 43.7414 11.16C43.7414 10.8036 43.7951 10.4739 43.9024 10.1708C44.0097 9.86766 44.1562 9.6096 44.3419 9.39456C44.5276 9.17951 44.7484 9.01361 45.0064 8.89483C45.2643 8.77604 45.5429 8.71664 45.8421 8.71664C46.4405 8.71664 46.9379 8.93988 47.3341 9.38636C47.7303 9.83285 47.9263 10.4247 47.9263 11.162C47.9263 11.5184 47.8727 11.8482 47.7654 12.1513C47.658 12.4544 47.5095 12.7124 47.3258 12.9275C47.1401 13.1425 46.9214 13.3084 46.6696 13.4272C46.4179 13.546 46.1413 13.6054 45.8421 13.6054C45.2313 13.6054 44.7278 13.3822 44.3316 12.9357M43.694 6.6911C43.0646 6.95939 42.5342 7.31576 42.103 7.76224C41.6717 8.20872 41.3456 8.72484 41.1228 9.31468C40.8999 9.90248 40.7905 10.519 40.7905 11.162C40.7905 11.8051 40.902 12.4196 41.1228 13.0094C41.3436 13.5972 41.6717 14.1154 42.103 14.5619C42.5342 15.0083 43.0646 15.3626 43.694 15.6228C44.3233 15.8849 45.0394 16.016 45.8421 16.016C46.6448 16.016 47.3609 15.8849 47.9903 15.6228C48.6197 15.3606 49.15 15.0083 49.5813 14.5619C50.0126 14.1154 50.3386 13.5993 50.5615 13.0094C50.7823 12.4216 50.8937 11.8051 50.8937 11.162C50.8937 10.519 50.7802 9.90453 50.5532 9.31468C50.3262 8.72688 49.9961 8.20872 49.5648 7.76224C49.1335 7.31576 48.6052 6.95939 47.982 6.6911C47.3588 6.4228 46.6448 6.28967 45.8421 6.28967C45.0394 6.28967 44.3233 6.4228 43.694 6.6911Z" fill="#1C7E3C"/>
<mask id="mask2_25_28" style="mask-type:luminance" maskUnits="userSpaceOnUse" x="40" y="6" width="11" height="11">
<path d="M44.3337 12.9357C43.9375 12.4892 43.7414 11.8973 43.7414 11.16C43.7414 10.8036 43.7951 10.4739 43.9024 10.1708C44.0097 9.86766 44.1562 9.6096 44.3419 9.39456C44.5276 9.17951 44.7484 9.01361 45.0064 8.89483C45.2643 8.77604 45.5429 8.71664 45.8421 8.71664C46.4405 8.71664 46.9379 8.93988 47.3341 9.38636C47.7303 9.83285 47.9263 10.4247 47.9263 11.162C47.9263 11.5184 47.8727 11.8482 47.7654 12.1513C47.658 12.4544 47.5095 12.7124 47.3258 12.9275C47.1401 13.1425 46.9214 13.3084 46.6696 13.4272C46.4179 13.546 46.1413 13.6054 45.8421 13.6054C45.2313 13.6054 44.7278 13.3822 44.3316 12.9357M43.694 6.6911C43.0646 6.95939 42.5342 7.31576 42.103 7.76224C41.6717 8.20872 41.3456 8.72484 41.1228 9.31468C40.8999 9.90248 40.7905 10.519 40.7905 11.162C40.7905 11.8051 40.902 12.4196 41.1228 13.0094C41.3436 13.5972 41.6717 14.1154 42.103 14.5619C42.5342 15.0083 43.0646 15.3626 43.694 15.6228C44.3233 15.8849 45.0394 16.016 45.8421 16.016C46.6448 16.016 47.3609 15.8849 47.9903 15.6228C48.6197 15.3606 49.15 15.0083 49.5813 14.5619C50.0126 14.1154 50.3386 13.5993 50.5615 13.0094C50.7823 12.4216 50.8937 11.8051 50.8937 11.162C50.8937 10.519 50.7802 9.90453 50.5532 9.31468C50.3262 8.72688 49.9961 8.20872 49.5648 7.76224C49.1335 7.31576 48.6052 6.95939 47.982 6.6911C47.3588 6.4228 46.6448 6.28967 45.8421 6.28967C45.0394 6.28967 44.3233 6.4228 43.694 6.6911Z" fill="white"/>
</mask>
<g mask="url(#mask2_25_28)">
<path d="M50.8936 6.28967H40.7925V16.0119H50.8936V6.28967Z" fill="#1C7E3C"/>
</g>
<path d="M57.0967 6.50465L58.5887 10.9817H55.5697L57.0967 6.50465ZM55.7657 3.16833L51.1104 15.8357H54.1293L55.0992 12.9991H59.0716L60.06 15.8357H63.079L58.4236 3.16833H55.7637H55.7657Z" fill="#1C7E3C"/>
<mask id="mask3_25_28" style="mask-type:luminance" maskUnits="userSpaceOnUse" x="51" y="3" width="13" height="13">
<path d="M57.0967 6.50465L58.5887 10.9817H55.5697L57.0967 6.50465ZM55.7657 3.16833L51.1104 15.8357H54.1293L55.0992 12.9991H59.0716L60.06 15.8357H63.079L58.4236 3.16833H55.7637H55.7657Z" fill="white"/>
</mask>
<g mask="url(#mask3_25_28)">
<path d="M63.0811 3.16833H51.1104V15.8357H63.0811V3.16833Z" fill="#1C7E3C"/>
</g>
<path d="M66.2174 6.68284C65.588 6.94499 65.0577 7.29726 64.6264 7.74374C64.1951 8.19022 63.865 8.70633 63.638 9.29618C63.411 9.88603 63.2954 10.5004 63.2954 11.1435C63.2954 11.7866 63.4089 12.4011 63.638 12.9889C63.865 13.5767 64.1972 14.0948 64.6347 14.5413C65.0721 14.9878 65.6045 15.3442 66.2339 15.6124C66.8633 15.8807 67.5732 16.0139 68.3635 16.0139C69.4531 16.0139 70.3796 15.7824 71.1411 15.3175C71.9025 14.8526 72.4555 14.2587 72.8043 13.5337L69.9999 12.6776C69.8555 12.952 69.6347 13.1752 69.3354 13.3473C69.0362 13.5193 68.7061 13.6053 68.347 13.6053C68.0602 13.6053 67.7857 13.5459 67.5298 13.4271C67.2719 13.3084 67.047 13.1425 66.855 12.9274C66.6631 12.7124 66.5146 12.4543 66.4052 12.1512C66.2979 11.8481 66.2442 11.5122 66.2442 11.1435C66.2442 10.4062 66.4444 9.81639 66.8468 9.3781C67.2471 8.93777 67.7486 8.71862 68.347 8.71862C69.0651 8.71862 69.612 9.01559 69.9834 9.60954L72.7878 8.77187C72.4163 8.03457 71.8592 7.43653 71.1163 6.97981C70.3734 6.52104 69.4572 6.2937 68.3656 6.2937C67.5628 6.2937 66.8468 6.42478 66.2174 6.68693" fill="#1C7E3C"/>
<mask id="mask4_25_28" style="mask-type:luminance" maskUnits="userSpaceOnUse" x="63" y="6" width="10" height="11">
<path d="M66.2174 6.68284C65.588 6.94499 65.0577 7.29726 64.6264 7.74374C64.1951 8.19022 63.865 8.70633 63.638 9.29618C63.411 9.88603 63.2954 10.5004 63.2954 11.1435C63.2954 11.7866 63.4089 12.4011 63.638 12.9889C63.865 13.5767 64.1972 14.0948 64.6347 14.5413C65.0721 14.9878 65.6045 15.3442 66.2339 15.6124C66.8633 15.8807 67.5732 16.0139 68.3635 16.0139C69.4531 16.0139 70.3796 15.7824 71.1411 15.3175C71.9025 14.8526 72.4555 14.2587 72.8043 13.5337L69.9999 12.6776C69.8555 12.952 69.6347 13.1752 69.3354 13.3473C69.0362 13.5193 68.7061 13.6053 68.347 13.6053C68.0602 13.6053 67.7857 13.5459 67.5298 13.4271C67.2719 13.3084 67.047 13.1425 66.855 12.9274C66.6631 12.7124 66.5146 12.4543 66.4052 12.1512C66.2979 11.8481 66.2442 11.5122 66.2442 11.1435C66.2442 10.4062 66.4444 9.81639 66.8468 9.3781C67.2471 8.93777 67.7486 8.71862 68.347 8.71862C69.0651 8.71862 69.612 9.01559 69.9834 9.60954L72.7878 8.77187C72.4163 8.03457 71.8592 7.43653 71.1163 6.97981C70.3734 6.52104 69.4572 6.2937 68.3656 6.2937C67.5628 6.2937 66.8468 6.42478 66.2174 6.68693" fill="white"/>
</mask>
<g mask="url(#mask4_25_28)">
<path d="M72.8062 6.28955H63.2974V16.0118H72.8062V6.28955Z" fill="#1C7E3C"/>
</g>
<path d="M74.6924 3.48996V6.46991H73.4873V8.62859H74.6924V13.5173C74.6924 13.97 74.7605 14.355 74.8988 14.6766C75.037 14.9981 75.2248 15.2562 75.4642 15.4528C75.7036 15.6494 75.9821 15.7928 76.2999 15.8808C76.6177 15.9709 76.9561 16.0139 77.3152 16.0139C77.8311 16.0139 78.3429 15.9423 78.8526 15.8009C79.3623 15.6576 79.8142 15.504 80.2104 15.336L79.6532 13.0709C79.4861 13.1548 79.288 13.2306 79.061 13.3023C78.834 13.374 78.6111 13.4088 78.3965 13.4088C78.1571 13.4088 77.959 13.3412 77.8043 13.204C77.6495 13.0668 77.5711 12.8435 77.5711 12.5343V8.62654H79.4943V6.46787H77.5711V3.48792H74.6945L74.6924 3.48996Z" fill="#1C7E3C"/>
<mask id="mask5_25_28" style="mask-type:luminance" maskUnits="userSpaceOnUse" x="73" y="3" width="8" height="14">
<path d="M74.6924 3.48996V6.46991H73.4873V8.62859H74.6924V13.5173C74.6924 13.97 74.7605 14.355 74.8988 14.6766C75.037 14.9981 75.2248 15.2562 75.4642 15.4528C75.7036 15.6494 75.9821 15.7928 76.2999 15.8808C76.6177 15.9709 76.9561 16.0139 77.3152 16.0139C77.8311 16.0139 78.3429 15.9423 78.8526 15.8009C79.3623 15.6576 79.8142 15.504 80.2104 15.336L79.6532 13.0709C79.4861 13.1548 79.288 13.2306 79.061 13.3023C78.834 13.374 78.6111 13.4088 78.3965 13.4088C78.1571 13.4088 77.959 13.3412 77.8043 13.204C77.6495 13.0668 77.5711 12.8435 77.5711 12.5343V8.62654H79.4943V6.46787H77.5711V3.48792H74.6945L74.6924 3.48996Z" fill="white"/>
</mask>
<g mask="url(#mask5_25_28)">
<path d="M80.2123 3.48987H73.4893V16.0139H80.2123V3.48987Z" fill="#1C7E3C"/>
</g>
<path d="M81.3271 15.8357H84.2037V6.46783H81.3271V15.8337V15.8357ZM81.3271 5.39873H84.2037V2.81201H81.3271V5.39873Z" fill="#1C7E3C"/>
<mask id="mask6_25_28" style="mask-type:luminance" maskUnits="userSpaceOnUse" x="81" y="2" width="4" height="14">
<path d="M81.3271 15.8357H84.2037V6.46783H81.3271V15.8337V15.8357ZM81.3271 5.39873H84.2037V2.81201H81.3271V5.39873Z" fill="white"/>
</mask>
<g mask="url(#mask6_25_28)">
<path d="M84.2037 2.81201H81.3271V15.8357H84.2037V2.81201Z" fill="#1C7E3C"/>
</g>
<path d="M92.4 6.46777L90.3138 13.5521L88.2461 6.46777H85.2808L88.6237 15.8357H91.7521L95.0765 6.46777H92.4Z" fill="#1C7E3C"/>
<mask id="mask7_25_28" style="mask-type:luminance" maskUnits="userSpaceOnUse" x="85" y="6" width="11" height="10">
<path d="M92.4 6.46777L90.3138 13.5521L88.2461 6.46777H85.2808L88.6237 15.8357H91.7521L95.0765 6.46777H92.4Z" fill="white"/>
</mask>
<g mask="url(#mask7_25_28)">
<path d="M95.0765 6.46777H85.2808V15.8336H95.0765V6.46777Z" fill="#1C7E3C"/>
</g>
<path d="M98.4568 13.632C98.1927 13.4129 98.0606 13.1302 98.0606 12.7841C98.0606 12.4032 98.2319 12.0939 98.5724 11.8563C98.9149 11.6187 99.3483 11.5 99.8765 11.5C100.128 11.5 100.401 11.5266 100.694 11.5798C100.987 11.6331 101.259 11.7068 101.511 11.8031V12.696C101.511 12.9336 101.373 13.1609 101.098 13.3739C100.906 13.5521 100.663 13.6955 100.37 13.802C100.077 13.9085 99.7733 13.9617 99.4617 13.9617C99.0532 13.9617 98.7189 13.8511 98.4547 13.632M97.7717 6.59481C97.101 6.79757 96.4531 7.10068 95.8299 7.50415L96.6739 9.28803C97.1898 8.94395 97.6809 8.68385 98.1473 8.51181C98.6136 8.33977 99.1048 8.25375 99.6206 8.25375C100.879 8.25375 101.509 8.79444 101.509 9.87787V10.3059C101.232 10.1748 100.91 10.0765 100.539 10.011C100.167 9.94546 99.7837 9.91269 99.3875 9.91269C98.789 9.91269 98.2422 9.99052 97.7511 10.1441C97.2599 10.2977 96.8348 10.5128 96.4737 10.7872C96.1147 11.0617 95.8361 11.3873 95.638 11.7682C95.4399 12.1492 95.3408 12.5711 95.3408 13.034C95.3408 13.462 95.4254 13.8573 95.5926 14.2198C95.7597 14.5823 95.9888 14.8977 96.2756 15.166C96.5624 15.4343 96.9071 15.6412 97.3095 15.7907C97.7098 15.9402 98.1452 16.0139 98.6136 16.0139C99.2616 16.0139 99.8745 15.8705 100.456 15.5859C101.038 15.3012 101.538 14.8895 101.957 14.355L102.01 14.783C102.082 15.164 102.256 15.4589 102.532 15.6657C102.809 15.8726 103.215 15.977 103.754 15.977C103.921 15.977 104.107 15.9689 104.311 15.9504C104.515 15.932 104.742 15.8931 104.994 15.8337V13.4251C104.767 13.4006 104.608 13.333 104.517 13.2203C104.429 13.1077 104.383 12.909 104.383 12.6223V10.2138C104.383 8.92962 103.993 7.95473 103.215 7.28706C102.435 6.62143 101.333 6.2876 99.9075 6.2876C99.1522 6.2876 98.4382 6.38795 97.7676 6.59071" fill="#1C7E3C"/>
<mask id="mask8_25_28" style="mask-type:luminance" maskUnits="userSpaceOnUse" x="95" y="6" width="10" height="11">
<path d="M98.4568 13.632C98.1927 13.4129 98.0606 13.1302 98.0606 12.7841C98.0606 12.4032 98.2319 12.0939 98.5724 11.8563C98.9149 11.6187 99.3483 11.5 99.8765 11.5C100.128 11.5 100.401 11.5266 100.694 11.5798C100.987 11.6331 101.259 11.7068 101.511 11.8031V12.696C101.511 12.9336 101.373 13.1609 101.098 13.3739C100.906 13.5521 100.663 13.6955 100.37 13.802C100.077 13.9085 99.7733 13.9617 99.4617 13.9617C99.0532 13.9617 98.7189 13.8511 98.4547 13.632M97.7717 6.59481C97.101 6.79757 96.4531 7.10068 95.8299 7.50415L96.6739 9.28803C97.1898 8.94395 97.6809 8.68385 98.1473 8.51181C98.6136 8.33977 99.1048 8.25375 99.6206 8.25375C100.879 8.25375 101.509 8.79444 101.509 9.87787V10.3059C101.232 10.1748 100.91 10.0765 100.539 10.011C100.167 9.94546 99.7837 9.91269 99.3875 9.91269C98.789 9.91269 98.2422 9.99052 97.7511 10.1441C97.2599 10.2977 96.8348 10.5128 96.4737 10.7872C96.1147 11.0617 95.8361 11.3873 95.638 11.7682C95.4399 12.1492 95.3408 12.5711 95.3408 13.034C95.3408 13.462 95.4254 13.8573 95.5926 14.2198C95.7597 14.5823 95.9888 14.8977 96.2756 15.166C96.5624 15.4343 96.9071 15.6412 97.3095 15.7907C97.7098 15.9402 98.1452 16.0139 98.6136 16.0139C99.2616 16.0139 99.8745 15.8705 100.456 15.5859C101.038 15.3012 101.538 14.8895 101.957 14.355L102.01 14.783C102.082 15.164 102.256 15.4589 102.532 15.6657C102.809 15.8726 103.215 15.977 103.754 15.977C103.921 15.977 104.107 15.9689 104.311 15.9504C104.515 15.932 104.742 15.8931 104.994 15.8337V13.4251C104.767 13.4006 104.608 13.333 104.517 13.2203C104.429 13.1077 104.383 12.909 104.383 12.6223V10.2138C104.383 8.92962 103.993 7.95473 103.215 7.28706C102.435 6.62143 101.333 6.2876 99.9075 6.2876C99.1522 6.2876 98.4382 6.38795 97.7676 6.59071" fill="white"/>
</mask>
<g mask="url(#mask8_25_28)">
<path d="M105.001 6.28992H95.3477V16.0121H105.001V6.28992Z" fill="#1C7E3C"/>
</g>
</g>
<defs>
<clipPath id="clip0_25_28">
<rect width="105" height="19" fill="white"/>
</clipPath>
</defs>
</svg>
